# xmcd
#
# Track frame offsets: 
#        150
#        12035
#        25803
#        38227
#        50386
#        62924
#        75256
#        85840
#        100315
#        111192
#        125058
#        135768
#        147468
#        158376
#        172872
#        184912
#        198155
#        212930
#        226237
#        235882
#        248707
#        260650
#        271228
#        283101
#        299358
#        312999
#        325404
#        339184
#
# Disc length: 4652 seconds
#
# Revision: 0
# Processed by: cddbd v1.5.2PL0 Copyright (c) Steve Scherf et al.
# Submitted via: ExactAudioCopy v0.95b3
#
DISCID=86122a1c
DTITLE=Va  - 1966 Best Year Ever - (Jul-Sep) - Disc 3
DYEAR=1900
DGENRE=
TTITLE0=Wild Thing - Troggs
TTITLE1=Hungry - Paul Revere and the Raiders
TTITLE2=Summer in the City - Lovin Spoonful
TTITLE3=Lil' Red Riding Hood - Sam the Sham and the Pharoahs
TTITLE4=Mother's Little Helper - Rolling Stones
TTITLE5=Sunny - Bobby Hebb
TTITLE6=Sweet Pea - Tommy Roe
TTITLE7=Lady Jane - Rolling Stones
TTITLE8=Over Under Sideways Down - Yardbirds
TTITLE9=I Want You - Bob Dylan
TTITLE10=7 and 7 Is - Love
TTITLE11=5D - The Byrds
TTITLE12=Wouldn't It Be Nice - Beach Boys
TTITLE13=Sunshine Superman - Donovan
TTITLE14=Yellow Submarine - Beatles
TTITLE15=You Can't Hurry Love - Supremes
TTITLE16=Cherish - Association
TTITLE17=Bus Stop - Hollies
TTITLE18=Eleanor Rigby - Beatles
TTITLE19=God Only Knows - Beach Boys
TTITLE20=Dangling Conversation - Simon and Garfunkel
TTITLE21=Wipe Out - Surfaris
TTITLE22=Sometimes Good Guys Don't Wear White - Standells
TTITLE23=Sunny Afternoon - Kinks
TTITLE24=Black is Black - Los Bravos
TTITLE25=Cherry Cherry - Neil Diamond
TTITLE26=What Becomes Of The Broken-Hearted - Jimmy Ruffin
TTITLE27=With a Girl Like You - Troggs
EXTD=
EXTT0=
EXTT1=
EXTT2=
EXTT3=
EXTT4=
EXTT5=
EXTT6=
EXTT7=
EXTT8=
EXTT9=
EXTT10=
EXTT11=
EXTT12=
EXTT13=
EXTT14=
EXTT15=
EXTT16=
EXTT17=
EXTT18=
EXTT19=
EXTT20=
EXTT21=
EXTT22=
EXTT23=
EXTT24=
EXTT25=
EXTT26=
EXTT27=
PLAYORDER=
